<svg width="384" height="700" viewBox="0 0 384 700" fill="none" xmlns="http://www.w3.org/2000/svg">
<circle r="375" transform="matrix(-1 0 0 1 376 344)" stroke="url(#paint0_linear)" stroke-width="2"/>
<path d="M243.496 427.725C273.486 391.443 318.835 368.323 369.583 368.323C459.884 368.323 533.089 441.527 533.089 531.829" stroke="url(#paint1_linear)" stroke-width="2" stroke-miterlimit="10"/>
<path d="M206.073 531.841C206.073 510.81 210.045 490.706 217.276 472.238" stroke="url(#paint2_linear)" stroke-width="2" stroke-miterlimit="10"/>
<path d="M369.407 317.66C324.906 317.66 288.83 281.584 288.83 237.083C288.83 192.582 324.906 156.507 369.407 156.507C413.908 156.507 449.983 192.582 449.983 237.083C449.983 281.584 413.908 317.66 369.407 317.66Z" stroke="url(#paint3_linear)" stroke-width="2" stroke-miterlimit="10"/>
<defs>
<linearGradient id="paint0_linear" x1="0" y1="376" x2="752" y2="376" gradientUnits="userSpaceOnUse">
<stop offset="0.2849" stop-color="#060F8F"/>
<stop offset="1" stop-color="#052CC0"/>
</linearGradient>
<linearGradient id="paint1_linear" x1="533.089" y1="450.076" x2="243.496" y2="450.076" gradientUnits="userSpaceOnUse">
<stop offset="0.2849" stop-color="#060F8F"/>
<stop offset="1" stop-color="#052CC0"/>
</linearGradient>
<linearGradient id="paint2_linear" x1="217.276" y1="502.04" x2="206.073" y2="502.04" gradientUnits="userSpaceOnUse">
<stop offset="0.2849" stop-color="#060F8F"/>
<stop offset="1" stop-color="#052CC0"/>
</linearGradient>
<linearGradient id="paint3_linear" x1="449.983" y1="237.083" x2="288.83" y2="237.083" gradientUnits="userSpaceOnUse">
<stop offset="0.2849" stop-color="#060F8F"/>
<stop offset="1" stop-color="#052CC0"/>
</linearGradient>
</defs>
</svg>
