<svg width="30" height="31" viewBox="0 0 30 31" fill="none" xmlns="http://www.w3.org/2000/svg">
<path d="M7.87097 17.0146L8.20099 18.1702C8.20109 20.1539 6.59298 21.7618 4.60928 21.7618C2.62568 21.7618 1.01758 20.1538 1.01758 18.1702L1.30878 17.075" stroke="#425563" stroke-width="1.5" stroke-miterlimit="10"/>
<path d="M28.578 16.9961L28.908 18.1516C28.9081 20.1353 27.3 21.7433 25.3163 21.7433C23.3326 21.7433 21.7246 20.1352 21.7246 18.1516L22.0158 17.0564" stroke="#425563" stroke-width="1.5" stroke-miterlimit="10"/>
<path d="M14.9404 28.8408V24.6602" stroke="#7A99AC" stroke-width="1.5" stroke-miterlimit="10"/>
<path d="M4.69238 29.4951H25.1878" stroke="#425563" stroke-width="1.5" stroke-miterlimit="10"/>
<path d="M14.9404 21.0274V0" stroke="#7A99AC" stroke-width="1.5" stroke-miterlimit="10"/>
<path d="M28.8594 17.9809L25.188 5.12891H4.6926L1 18.1518" stroke="#7A99AC" stroke-width="1.5" stroke-miterlimit="10"/>
<path d="M25.1879 5.12891L21.7246 18.1518" stroke="#7A99AC" stroke-width="1.5" stroke-miterlimit="10"/>
<path d="M8.1832 18.1518L4.69238 5.12891" stroke="#7A99AC" stroke-width="1.5" stroke-miterlimit="10"/>
</svg>