<svg width="52" height="54" viewBox="0 0 52 54" fill="none" xmlns="http://www.w3.org/2000/svg">
  <path d="M13.3098 30.4834L13.901 32.5536C13.9012 36.1076 11.0201 38.9885 7.46615 38.9885C3.91233 38.9885 1.03125 36.1074 1.03125 32.5536L1.55296 30.5914" stroke="#00C389" stroke-width="1.5" stroke-miterlimit="10"/>
  <path d="M50.409 30.4502L51.0002 32.5204C51.0003 36.0744 48.1193 38.9553 44.5653 38.9553C41.0113 38.9553 38.1304 36.0742 38.1304 32.5204L38.6521 30.5582" stroke="#00C389" stroke-width="1.5" stroke-miterlimit="10"/>
  <path d="M25.9756 51.6716V44.1816" stroke="#052CC0" stroke-width="1.5" stroke-miterlimit="10"/>
  <path d="M7.61523 52.8438H44.3348" stroke="#00C389" stroke-width="1.5" stroke-miterlimit="10"/>
  <path d="M25.9756 37.6727V0" stroke="#052CC0" stroke-width="1.5" stroke-miterlimit="10"/>
  <path d="M50.9129 32.2141L44.3352 9.18848H7.61565L1 32.5203" stroke="#052CC0" stroke-width="1.5" stroke-miterlimit="10"/>
  <path d="M44.3353 9.18848L38.1304 32.5203" stroke="#052CC0" stroke-width="1.5" stroke-miterlimit="10"/>
  <path d="M13.8694 32.5203L7.61523 9.18848" stroke="#052CC0" stroke-width="1.5" stroke-miterlimit="10"/>
</svg>
