<svg width="1152" height="467" viewBox="0 0 1152 467" fill="none" xmlns="http://www.w3.org/2000/svg">
<path d="M-13 753.374C-13 753.374 941.727 -685.484 1152 537.696" stroke="url(#paint0_linear)" stroke-width="0.3214" stroke-miterlimit="10"/>
<path d="M-12.9712 741.043C-12.9712 741.043 920.099 -643.377 1152 524.604" stroke="url(#paint1_linear)" stroke-width="0.338" stroke-miterlimit="10"/>
<path d="M-12.9424 728.711C-12.9424 728.711 898.47 -601.269 1152 511.512" stroke="url(#paint2_linear)" stroke-width="0.3545" stroke-miterlimit="10"/>
<path d="M-12.915 716.38C-12.915 716.38 876.84 -559.162 1152 498.42" stroke="url(#paint3_linear)" stroke-width="0.3711" stroke-miterlimit="10"/>
<path d="M-12.8862 704.049C-12.8862 704.049 855.211 -517.055 1152 485.328" stroke="url(#paint4_linear)" stroke-width="0.3876" stroke-miterlimit="10"/>
<path d="M-12.8574 691.717C-12.8574 691.717 833.583 -474.948 1152 472.236" stroke="url(#paint5_linear)" stroke-width="0.4042" stroke-miterlimit="10"/>
<path d="M-12.8286 679.386C-12.8286 679.386 811.954 -432.841 1152 459.144" stroke="url(#paint6_linear)" stroke-width="0.4207" stroke-miterlimit="10"/>
<path d="M-12.8008 667.054C-12.8008 667.054 790.324 -390.734 1152 446.052" stroke="url(#paint7_linear)" stroke-width="0.4373" stroke-miterlimit="10"/>
<path d="M-12.772 654.723C-12.772 654.723 768.696 -348.626 1152 432.96" stroke="url(#paint8_linear)" stroke-width="0.4538" stroke-miterlimit="10"/>
<path d="M-12.7432 642.392C-12.7432 642.392 747.067 -306.519 1152 419.868" stroke="url(#paint9_linear)" stroke-width="0.4704" stroke-miterlimit="10"/>
<path d="M-12.7144 630.06C-12.7144 630.06 725.439 -264.412 1152 406.775" stroke="url(#paint10_linear)" stroke-width="0.4869" stroke-miterlimit="10"/>
<path d="M-12.6855 617.729C-12.6855 617.729 703.81 -222.305 1152 393.684" stroke="url(#paint11_linear)" stroke-width="0.5035" stroke-miterlimit="10"/>
<path d="M-12.6582 605.398C-12.6582 605.398 682.18 -180.198 1152 380.591" stroke="url(#paint12_linear)" stroke-width="0.52" stroke-miterlimit="10"/>
<path d="M-12.6294 593.066C-12.6294 593.066 660.551 -138.091 1152 367.499" stroke="url(#paint13_linear)" stroke-width="0.5366" stroke-miterlimit="10"/>
<path d="M-12.6006 580.735C-12.6006 580.735 638.923 -95.9836 1152 354.407" stroke="url(#paint14_linear)" stroke-width="0.5531" stroke-miterlimit="10"/>
<path d="M-12.5718 568.404C-12.5718 568.404 617.294 -53.8761 1152 341.315" stroke="url(#paint15_linear)" stroke-width="0.5697" stroke-miterlimit="10"/>
<path d="M-12.5439 556.072C-12.5439 556.072 595.664 -11.7691 1152 328.223" stroke="url(#paint16_linear)" stroke-width="0.5862" stroke-miterlimit="10"/>
<path d="M-12.5151 543.741C-12.5151 543.741 574.036 30.3381 1152 315.131" stroke="url(#paint17_linear)" stroke-width="0.6028" stroke-miterlimit="10"/>
<path d="M-12.4863 531.409C-12.4863 531.409 552.407 72.4451 1152 302.039" stroke="url(#paint18_linear)" stroke-width="0.6193" stroke-miterlimit="10"/>
<path d="M-12.458 519.078C-12.458 519.078 530.778 114.553 1152 288.947" stroke="url(#paint19_linear)" stroke-width="0.6359" stroke-miterlimit="10"/>
<path d="M-12.4302 506.747C-12.4302 506.747 509.148 156.66 1152 275.855" stroke="url(#paint20_linear)" stroke-width="0.6524" stroke-miterlimit="10"/>
<path d="M-12.4014 494.415C-12.4014 494.415 487.52 198.767 1152 262.763" stroke="url(#paint21_linear)" stroke-width="0.669" stroke-miterlimit="10"/>
<path d="M-12.3726 482.084C-12.3726 482.084 465.891 240.874 1152 249.67" stroke="url(#paint22_linear)" stroke-width="0.6855" stroke-miterlimit="10"/>
<path d="M-12.3438 469.753C-12.3438 469.753 444.262 282.981 1152 236.579" stroke="url(#paint23_linear)" stroke-width="0.7021" stroke-miterlimit="10"/>
<path d="M-12.3164 457.421C-12.3164 457.421 422.632 325.088 1152 223.486" stroke="url(#paint24_linear)" stroke-width="0.7186" stroke-miterlimit="10"/>
<path d="M-12.2876 445.09C-12.2876 445.09 401.003 367.195 1152 210.394" stroke="url(#paint25_linear)" stroke-width="0.7352" stroke-miterlimit="10"/>
<path d="M-12.2588 432.759C-12.2588 432.759 379.375 409.303 1152 197.302" stroke="url(#paint26_linear)" stroke-width="0.7517" stroke-miterlimit="10"/>
<path d="M-12.23 420.427C-12.23 420.427 357.746 451.41 1152 184.21" stroke="url(#paint27_linear)" stroke-width="0.7683" stroke-miterlimit="10"/>
<path d="M-12.2012 408.096C-12.2012 408.096 336.118 493.517 1152 171.118" stroke="url(#paint28_linear)" stroke-width="0.7848" stroke-miterlimit="10"/>
<path d="M-12.1733 395.765C-12.1733 395.765 314.488 535.624 1152 158.026" stroke="url(#paint29_linear)" stroke-width="0.8014" stroke-miterlimit="10"/>
<path d="M-12.1445 383.433C-12.1445 383.433 292.859 577.731 1152 144.934" stroke="url(#paint30_linear)" stroke-width="0.8179" stroke-miterlimit="10"/>
<path d="M-12.1157 371.102C-12.1157 371.102 271.231 619.838 1152 131.842" stroke="url(#paint31_linear)" stroke-width="0.8345" stroke-miterlimit="10"/>
<path d="M-12.0869 358.77C-12.0869 358.77 249.602 661.946 1152 118.75" stroke="url(#paint32_linear)" stroke-width="0.851" stroke-miterlimit="10"/>
<path d="M-12.0596 346.439C-12.0596 346.439 227.972 704.053 1152 105.658" stroke="url(#paint33_linear)" stroke-width="0.8676" stroke-miterlimit="10"/>
<path d="M-12.0308 334.108C-12.0308 334.108 206.343 746.16 1152 92.5657" stroke="url(#paint34_linear)" stroke-width="0.8841" stroke-miterlimit="10"/>
<path d="M-12.002 321.776C-12.002 321.776 184.715 788.267 1152 79.4735" stroke="url(#paint35_linear)" stroke-width="0.9007" stroke-miterlimit="10"/>
<path d="M-11.9731 309.445C-11.9731 309.445 163.086 830.374 1152 66.3817" stroke="url(#paint36_linear)" stroke-width="0.9172" stroke-miterlimit="10"/>
<path d="M-11.9453 297.114C-11.9453 297.114 141.456 872.481 1152 53.2896" stroke="url(#paint37_linear)" stroke-width="0.9338" stroke-miterlimit="10"/>
<path d="M-11.9165 284.782C-11.9165 284.782 119.828 914.589 1152 40.1974" stroke="url(#paint38_linear)" stroke-width="0.9503" stroke-miterlimit="10"/>
<path d="M-11.8877 272.451C-11.8877 272.451 98.1991 956.696 1152 27.1055" stroke="url(#paint39_linear)" stroke-width="0.9669" stroke-miterlimit="10"/>
<path d="M-11.8594 260.12C-11.8594 260.12 76.5699 998.803 1152 14.0133" stroke="url(#paint40_linear)" stroke-width="0.9834" stroke-miterlimit="10"/>
<path d="M-11.8306 247.788C-11.8306 247.788 54.9413 1040.91 1152 0.921143" stroke="url(#paint41_linear)" stroke-miterlimit="10"/>
<defs>
<linearGradient id="paint0_linear" x1="451.164" y1="868.365" x2="684.665" y2="-71.4619" gradientUnits="userSpaceOnUse">
<stop stop-color="white" stop-opacity="0.6"/>
<stop offset="1" stop-color="#F2F2FC" stop-opacity="0"/>
</linearGradient>
<linearGradient id="paint1_linear" x1="451.181" y1="852.186" x2="670.157" y2="-59.6736" gradientUnits="userSpaceOnUse">
<stop stop-color="white" stop-opacity="0.6"/>
<stop offset="1" stop-color="#F2F2FC" stop-opacity="0"/>
</linearGradient>
<linearGradient id="paint2_linear" x1="451.199" y1="836.009" x2="656.049" y2="-47.5777" gradientUnits="userSpaceOnUse">
<stop stop-color="white" stop-opacity="0.6"/>
<stop offset="1" stop-color="#F2F2FC" stop-opacity="0"/>
</linearGradient>
<linearGradient id="paint3_linear" x1="451.215" y1="819.837" x2="642.352" y2="-35.1863" gradientUnits="userSpaceOnUse">
<stop stop-color="white" stop-opacity="0.6"/>
<stop offset="1" stop-color="#F2F2FC" stop-opacity="0"/>
</linearGradient>
<linearGradient id="paint4_linear" x1="451.232" y1="803.67" x2="629.079" y2="-22.5117" gradientUnits="userSpaceOnUse">
<stop stop-color="white" stop-opacity="0.6"/>
<stop offset="1" stop-color="#F2F2FC" stop-opacity="0"/>
</linearGradient>
<linearGradient id="paint5_linear" x1="451.25" y1="787.508" x2="616.238" y2="-9.5683" gradientUnits="userSpaceOnUse">
<stop stop-color="white" stop-opacity="0.6"/>
<stop offset="1" stop-color="#F2F2FC" stop-opacity="0"/>
</linearGradient>
<linearGradient id="paint6_linear" x1="451.267" y1="771.353" x2="603.84" y2="3.62799" gradientUnits="userSpaceOnUse">
<stop stop-color="white" stop-opacity="0.6"/>
<stop offset="1" stop-color="#F2F2FC" stop-opacity="0"/>
</linearGradient>
<linearGradient id="paint7_linear" x1="451.284" y1="755.205" x2="591.894" y2="17.0597" gradientUnits="userSpaceOnUse">
<stop stop-color="white" stop-opacity="0.6"/>
<stop offset="1" stop-color="#F2F2FC" stop-opacity="0"/>
</linearGradient>
<linearGradient id="paint8_linear" x1="451.301" y1="739.067" x2="580.413" y2="30.7069" gradientUnits="userSpaceOnUse">
<stop stop-color="white" stop-opacity="0.6"/>
<stop offset="1" stop-color="#F2F2FC" stop-opacity="0"/>
</linearGradient>
<linearGradient id="paint9_linear" x1="451.319" y1="722.939" x2="569.405" y2="44.546" gradientUnits="userSpaceOnUse">
<stop stop-color="white" stop-opacity="0.6"/>
<stop offset="1" stop-color="#F2F2FC" stop-opacity="0"/>
</linearGradient>
<linearGradient id="paint10_linear" x1="451.336" y1="706.824" x2="558.882" y2="58.5502" gradientUnits="userSpaceOnUse">
<stop stop-color="white" stop-opacity="0.6"/>
<stop offset="1" stop-color="#F2F2FC" stop-opacity="0"/>
</linearGradient>
<linearGradient id="paint11_linear" x1="451.353" y1="690.724" x2="548.853" y2="72.6874" gradientUnits="userSpaceOnUse">
<stop stop-color="white" stop-opacity="0.6"/>
<stop offset="1" stop-color="#F2F2FC" stop-opacity="0"/>
</linearGradient>
<linearGradient id="paint12_linear" x1="451.369" y1="674.645" x2="539.328" y2="86.9173" gradientUnits="userSpaceOnUse">
<stop stop-color="white" stop-opacity="0.6"/>
<stop offset="1" stop-color="#F2F2FC" stop-opacity="0"/>
</linearGradient>
<linearGradient id="paint13_linear" x1="451.387" y1="658.589" x2="530.322" y2="101.191" gradientUnits="userSpaceOnUse">
<stop stop-color="white" stop-opacity="0.6"/>
<stop offset="1" stop-color="#F2F2FC" stop-opacity="0"/>
</linearGradient>
<linearGradient id="paint14_linear" x1="451.404" y1="642.566" x2="521.848" y2="115.443" gradientUnits="userSpaceOnUse">
<stop stop-color="white" stop-opacity="0.6"/>
<stop offset="1" stop-color="#F2F2FC" stop-opacity="0"/>
</linearGradient>
<linearGradient id="paint15_linear" x1="451.422" y1="626.583" x2="513.919" y2="129.587" gradientUnits="userSpaceOnUse">
<stop stop-color="white" stop-opacity="0.6"/>
<stop offset="1" stop-color="#F2F2FC" stop-opacity="0"/>
</linearGradient>
<linearGradient id="paint16_linear" x1="451.438" y1="610.657" x2="506.554" y2="143.501" gradientUnits="userSpaceOnUse">
<stop stop-color="white" stop-opacity="0.6"/>
<stop offset="1" stop-color="#F2F2FC" stop-opacity="0"/>
</linearGradient>
<linearGradient id="paint17_linear" x1="451.456" y1="594.808" x2="499.781" y2="157.005" gradientUnits="userSpaceOnUse">
<stop stop-color="white" stop-opacity="0.6"/>
<stop offset="1" stop-color="#F2F2FC" stop-opacity="0"/>
</linearGradient>
<linearGradient id="paint18_linear" x1="451.473" y1="579.073" x2="493.637" y2="169.818" gradientUnits="userSpaceOnUse">
<stop stop-color="white" stop-opacity="0.6"/>
<stop offset="1" stop-color="#F2F2FC" stop-opacity="0"/>
</linearGradient>
<linearGradient id="paint19_linear" x1="451.49" y1="563.511" x2="488.184" y2="181.466" gradientUnits="userSpaceOnUse">
<stop stop-color="white" stop-opacity="0.6"/>
<stop offset="1" stop-color="#F2F2FC" stop-opacity="0"/>
</linearGradient>
<linearGradient id="paint20_linear" x1="451.507" y1="548.236" x2="483.538" y2="191.083" gradientUnits="userSpaceOnUse">
<stop stop-color="white" stop-opacity="0.6"/>
<stop offset="1" stop-color="#F2F2FC" stop-opacity="0"/>
</linearGradient>
<linearGradient id="paint21_linear" x1="451.524" y1="533.484" x2="479.953" y2="196.868" gradientUnits="userSpaceOnUse">
<stop stop-color="white" stop-opacity="0.6"/>
<stop offset="1" stop-color="#F2F2FC" stop-opacity="0"/>
</linearGradient>
<linearGradient id="paint22_linear" x1="451.541" y1="519.842" x2="478.108" y2="194.364" gradientUnits="userSpaceOnUse">
<stop stop-color="white" stop-opacity="0.6"/>
<stop offset="1" stop-color="#F2F2FC" stop-opacity="0"/>
</linearGradient>
<linearGradient id="paint23_linear" x1="451.559" y1="507.596" x2="478.246" y2="181.393" gradientUnits="userSpaceOnUse">
<stop stop-color="white" stop-opacity="0.6"/>
<stop offset="1" stop-color="#F2F2FC" stop-opacity="0"/>
</linearGradient>
<linearGradient id="paint24_linear" x1="451.575" y1="495.388" x2="478.436" y2="168.135" gradientUnits="userSpaceOnUse">
<stop stop-color="white" stop-opacity="0.6"/>
<stop offset="1" stop-color="#F2F2FC" stop-opacity="0"/>
</linearGradient>
<linearGradient id="paint25_linear" x1="451.592" y1="483.18" x2="478.628" y2="154.877" gradientUnits="userSpaceOnUse">
<stop stop-color="white" stop-opacity="0.6"/>
<stop offset="1" stop-color="#F2F2FC" stop-opacity="0"/>
</linearGradient>
<linearGradient id="paint26_linear" x1="451.61" y1="470.973" x2="478.82" y2="141.62" gradientUnits="userSpaceOnUse">
<stop stop-color="white" stop-opacity="0.6"/>
<stop offset="1" stop-color="#F2F2FC" stop-opacity="0"/>
</linearGradient>
<linearGradient id="paint27_linear" x1="451.627" y1="460.041" x2="479.267" y2="128.124" gradientUnits="userSpaceOnUse">
<stop stop-color="white" stop-opacity="0.6"/>
<stop offset="1" stop-color="#F2F2FC" stop-opacity="0"/>
</linearGradient>
<linearGradient id="paint28_linear" x1="451.645" y1="458.468" x2="481.624" y2="112.892" gradientUnits="userSpaceOnUse">
<stop stop-color="white" stop-opacity="0.6"/>
<stop offset="1" stop-color="#F2F2FC" stop-opacity="0"/>
</linearGradient>
<linearGradient id="paint29_linear" x1="451.661" y1="463.787" x2="485.572" y2="96.4329" gradientUnits="userSpaceOnUse">
<stop stop-color="white" stop-opacity="0.6"/>
<stop offset="1" stop-color="#F2F2FC" stop-opacity="0"/>
</linearGradient>
<linearGradient id="paint30_linear" x1="451.679" y1="472.686" x2="490.595" y2="79.4062" gradientUnits="userSpaceOnUse">
<stop stop-color="white" stop-opacity="0.6"/>
<stop offset="1" stop-color="#F2F2FC" stop-opacity="0"/>
</linearGradient>
<linearGradient id="paint31_linear" x1="451.696" y1="483.606" x2="496.459" y2="62.1343" gradientUnits="userSpaceOnUse">
<stop stop-color="white" stop-opacity="0.6"/>
<stop offset="1" stop-color="#F2F2FC" stop-opacity="0"/>
</linearGradient>
<linearGradient id="paint32_linear" x1="451.713" y1="495.765" x2="503.05" y2="44.7865" gradientUnits="userSpaceOnUse">
<stop stop-color="white" stop-opacity="0.6"/>
<stop offset="1" stop-color="#F2F2FC" stop-opacity="0"/>
</linearGradient>
<linearGradient id="paint33_linear" x1="451.729" y1="508.737" x2="510.303" y2="27.4626" gradientUnits="userSpaceOnUse">
<stop stop-color="white" stop-opacity="0.6"/>
<stop offset="1" stop-color="#F2F2FC" stop-opacity="0"/>
</linearGradient>
<linearGradient id="paint34_linear" x1="451.747" y1="522.267" x2="518.182" y2="10.2261" gradientUnits="userSpaceOnUse">
<stop stop-color="white" stop-opacity="0.6"/>
<stop offset="1" stop-color="#F2F2FC" stop-opacity="0"/>
</linearGradient>
<linearGradient id="paint35_linear" x1="451.764" y1="536.199" x2="526.66" y2="-6.87748" gradientUnits="userSpaceOnUse">
<stop stop-color="white" stop-opacity="0.6"/>
<stop offset="1" stop-color="#F2F2FC" stop-opacity="0"/>
</linearGradient>
<linearGradient id="paint36_linear" x1="451.782" y1="550.428" x2="535.715" y2="-23.8137" gradientUnits="userSpaceOnUse">
<stop stop-color="white" stop-opacity="0.6"/>
<stop offset="1" stop-color="#F2F2FC" stop-opacity="0"/>
</linearGradient>
<linearGradient id="paint37_linear" x1="451.798" y1="564.884" x2="545.33" y2="-40.5559" gradientUnits="userSpaceOnUse">
<stop stop-color="white" stop-opacity="0.6"/>
<stop offset="1" stop-color="#F2F2FC" stop-opacity="0"/>
</linearGradient>
<linearGradient id="paint38_linear" x1="451.816" y1="579.517" x2="555.493" y2="-57.0812" gradientUnits="userSpaceOnUse">
<stop stop-color="white" stop-opacity="0.6"/>
<stop offset="1" stop-color="#F2F2FC" stop-opacity="0"/>
</linearGradient>
<linearGradient id="paint39_linear" x1="451.833" y1="594.291" x2="566.19" y2="-73.3695" gradientUnits="userSpaceOnUse">
<stop stop-color="white" stop-opacity="0.6"/>
<stop offset="1" stop-color="#F2F2FC" stop-opacity="0"/>
</linearGradient>
<linearGradient id="paint40_linear" x1="451.85" y1="609.177" x2="577.409" y2="-89.4042" gradientUnits="userSpaceOnUse">
<stop stop-color="white" stop-opacity="0.6"/>
<stop offset="1" stop-color="#F2F2FC" stop-opacity="0"/>
</linearGradient>
<linearGradient id="paint41_linear" x1="451.868" y1="624.157" x2="589.138" y2="-105.169" gradientUnits="userSpaceOnUse">
<stop stop-color="white" stop-opacity="0.6"/>
<stop offset="1" stop-color="#F2F2FC" stop-opacity="0"/>
</linearGradient>
</defs>
</svg>

