<svg width="110" height="29" viewBox="0 0 110 29" fill="none" xmlns="http://www.w3.org/2000/svg">
<g clip-path="url(#clip0)">
<path fill-rule="evenodd" clip-rule="evenodd" d="M51.3489 11.7143H54.0635L61.3976 28.9473H58.302L56.6114 24.8163H48.7296L47.0152 28.9473H44.0148L51.3489 11.7143ZM55.5398 22.1519L52.6584 15.3076L49.801 22.1519H55.5398ZM25.8457 11.8366H33.2749C35.3704 11.8366 37.0136 12.4722 38.0851 13.5477C38.9661 14.4766 39.4663 15.7476 39.4663 17.2387V17.2876C39.4663 20.0988 37.8231 21.7854 35.5134 22.4698L40.0138 28.9473H36.5374L32.4417 22.9831H28.7746V28.9473H25.8457V11.8366ZM33.0607 20.3186C35.1562 20.3186 36.4897 19.1942 36.4897 17.4588V17.4098C36.4897 15.5766 35.2038 14.5743 33.0369 14.5743H28.7746V20.3186H33.0607ZM72.3756 11.8366H66.1606V28.9473H72.3756C77.6144 28.9473 81.2338 25.2074 81.2338 20.392V20.3431C81.2338 15.5277 77.6143 11.8366 72.3756 11.8366ZM69.0895 26.2096V14.5743H72.3755C75.8759 14.5743 78.1619 17.0432 78.1619 20.3919V20.4408C78.1619 23.7898 75.8759 26.2096 72.3755 26.2096H69.0895ZM89.3074 11.8366H86.3785V28.9473H89.3074V11.8366ZM103.952 20.1964L109.762 11.8366H106.404L102.237 18.0454L98.0939 11.8366H94.6412L100.428 20.2453L94.403 28.9473H97.7606L102.142 22.4208L106.547 28.9473H110L103.952 20.1964Z" fill="white"/>
<path d="M12.2025 25.3487C11.6736 25.3487 11.1718 25.0889 10.8582 24.6427L4.28557 15.2948H0V11.8904H5.13385C5.66646 11.8904 6.16666 12.153 6.47844 12.5964L11.8482 20.2336L20.0431 1.01943C20.3072 0.400124 20.9034 0 21.5621 0H31.8043V3.4044H22.6464L13.7217 24.3292C13.4831 24.8888 12.9704 25.2744 12.3786 25.3392C12.3198 25.3457 12.2608 25.3487 12.2025 25.3487Z" fill="#00C389"/>
</g>
<defs>
<clipPath id="clip0">
<rect width="110" height="28.9474" fill="white"/>
</clipPath>
</defs>
</svg>
