<svg width="64" height="64" viewBox="0 0 64 64" fill="none" xmlns="http://www.w3.org/2000/svg">
<g clip-path="url(#clip0)">
<g clip-path="url(#clip1)">
<path d="M32.1214 63.5758C49.1248 63.5758 62.9088 49.7918 62.9088 32.7884C62.9088 15.785 49.1248 2.00098 32.1214 2.00098C15.118 2.00098 1.33398 15.785 1.33398 32.7884C1.33398 49.7918 15.118 63.5758 32.1214 63.5758Z" stroke="#DDE5ED" stroke-miterlimit="10"/>
<path d="M13.4824 51.8574C18.2789 56.487 24.8065 59.3348 31.9993 59.3348C43.7211 59.3348 53.6765 51.7715 57.2518 41.2588" stroke="#00AB84" stroke-miterlimit="10"/>
<path d="M23.3328 7.44238C12.8599 11.0396 5.3335 20.9753 5.3335 32.6687C5.3335 37.5071 6.62201 42.0444 8.87482 45.9564" stroke="#00AB84" stroke-miterlimit="10"/>
<path d="M32 6.00098C46.7274 6.00098 58.6662 17.9399 58.6662 32.6672" stroke="#00C389" stroke-miterlimit="10"/>
<path d="M28.936 43.3333C28.4909 43.3333 28.0686 43.1147 27.8047 42.7391L22.2732 34.872H18.6665V32.0069H22.9871C23.4354 32.0069 23.8563 32.2279 24.1187 32.6011L28.6379 39.0284L35.5346 22.8579C35.7569 22.3367 36.2586 22 36.813 22H45.4328V24.8651H37.7256L30.2146 42.4753C30.0138 42.9463 29.5823 43.2708 29.0843 43.3253C29.0348 43.3307 28.9851 43.3333 28.936 43.3333Z" fill="#00C389"/>
</g>
</g>
<defs>
<clipPath id="clip0">
<rect width="64" height="64" rx="6" fill="white"/>
</clipPath>
<clipPath id="clip1">
<path d="M0 6.66699C0 3.35328 2.68629 0.666992 6 0.666992H58C61.3137 0.666992 64 3.35328 64 6.66699V58.667C64 61.9807 61.3137 64.667 58 64.667H6C2.68629 64.667 0 61.9807 0 58.667V6.66699Z" fill="white"/>
</clipPath>
</defs>
</svg>
